<svg id="bedf9c87-075f-49b9-bdbb-d7b98d68a4da" data-name="Calque 1" xmlns="http://www.w3.org/2000/svg"
     viewBox="0 0 239.711 490.622">
    <defs>
        <style>
            .ac60eba6-0e74-4282-ab0e-1e7d8208fe2e,.e2fdc756-a337-4a96-a765-7e2433f47f39{fill:#fff;}.e2fdc756-a337-4a96-a765-7e2433f47f39{stroke:#6eb8f4;}.ac60eba6-0e74-4282-ab0e-1e7d8208fe2e,.e2fdc756-a337-4a96-a765-7e2433f47f39,.ece00038-87aa-47c7-9aac-21842e82de4f{stroke-miterlimit:10;stroke-width:5px;}.ece00038-87aa-47c7-9aac-21842e82de4f{fill:none;}.ac60eba6-0e74-4282-ab0e-1e7d8208fe2e,.ece00038-87aa-47c7-9aac-21842e82de4f{stroke:#f270be;}
        </style>
    </defs>
    <path class="e2fdc756-a337-4a96-a765-7e2433f47f39"
          d="M269.992,102.476c0-54.2-38.238-98.139-85.407-98.139S99.178,48.276,99.178,102.476c0,47.47,29.332,87.065,68.305,96.167,10.165,26.426,13.751,48.3,3.749,57.947-19.484,18.792-79.046-19.824-91.977-2.577C66.444,271.1,121.7,312.683,112.271,367.8c-2.271,13.275-10.095,26.907-27.233,53.222-30.595,46.98-51.928,65-49.58,68.3,3.521,4.949,54.427-19.326,85.519-67.116,11.363-17.467,30.494-46.871,25.4-81.483-3.274-22.225-14.627-33.626-8.6-42.069,10.334-14.486,49.61,10.883,70.753-1.912,14.013-8.481,21.95-34.933,8.335-103.4C248.022,178.713,269.992,143.551,269.992,102.476Z"
          transform="translate(-32.781 -1.837)"/>
    <line class="ece00038-87aa-47c7-9aac-21842e82de4f" x1="68.289" y1="88.736" x2="94.432" y2="85.984"/>
    <line class="ece00038-87aa-47c7-9aac-21842e82de4f" x1="234.775" y1="92.864" x2="210.009" y2="85.296"/>
    <path class="ece00038-87aa-47c7-9aac-21842e82de4f"
          d="M174.47,86.485c1.478-3.771,6.062-6.361,11-6.311,4.407.044,8.358,2.184,9.927,5.4"
          transform="translate(-32.781 -1.837)"/>
    <ellipse class="ac60eba6-0e74-4282-ab0e-1e7d8208fe2e" cx="118.045" cy="87.678" rx="24.135" ry="29.264"/>
    <ellipse class="ac60eba6-0e74-4282-ab0e-1e7d8208fe2e" cx="185.874" cy="86.041" rx="24.135" ry="29.264"/>
</svg>
