<svg id="ebb914c8-8a25-4b7d-9ad2-5d45fb2beed6" data-name="Calque 1" xmlns="http://www.w3.org/2000/svg" viewBox="0 0 497.986 498.006"><defs><style>.e7201e47-2148-41b8-9a23-1eaf3d0a4a2a{fill:#fa94bc;}.aa460c82-9359-4781-81a4-1dbd3e5f7753,.e7201e47-2148-41b8-9a23-1eaf3d0a4a2a,.f0ac5236-3a38-4f98-9a78-c21d723c5616,.f6e358e6-b86c-44d5-b19b-ae7cd3aad595{stroke:#ed54a8;stroke-miterlimit:10;stroke-width:3px;}.aa460c82-9359-4781-81a4-1dbd3e5f7753{fill:#f43d3d;}.f0ac5236-3a38-4f98-9a78-c21d723c5616{fill:#d495f9;}.f6e358e6-b86c-44d5-b19b-ae7cd3aad595{fill:#aff9c9;}</style></defs><path class="e7201e47-2148-41b8-9a23-1eaf3d0a4a2a" d="M86.308,412.281l2.625-16.109,14.759-1.277,13.086-13.087A186.885,186.885,0,0,1,62.524,252.533h-19.9l-9.755-8.2-11.394,8.2H2.521A245.808,245.808,0,0,0,74.29,424.3Z" transform="translate(-1.005 -0.995)"/><path class="aa460c82-9359-4781-81a4-1dbd3e5f7753" d="M89.369,84.058l16.108,2.625,1.276,14.758,13.408,13.406A186.854,186.854,0,0,1,249.116,62.5V40.373l8.2-9.755-8.2-11.394V2.5A245.788,245.788,0,0,0,77.67,72.36Z" transform="translate(-1.005 -0.995)"/><path class="f0ac5236-3a38-4f98-9a78-c21d723c5616" d="M410.657,98.58l2.258-13.857,10.9-10.9a245.769,245.769,0,0,0-169.7-71.28V17.611l9.533,13.246L254.115,42.2V62.543A186.883,186.883,0,0,1,381.331,116.31l16.63-16.632Z" transform="translate(-1.005 -0.995)"/><path class="f0ac5236-3a38-4f98-9a78-c21d723c5616" d="M19.861,247.535,33.108,238l11.338,9.533H62.523A186.884,186.884,0,0,1,116.6,118.361l-14.675-14.673-1.1-12.7L86.974,88.734,74.113,75.874A245.8,245.8,0,0,0,2.52,247.536Z" transform="translate(-1.005 -0.995)"/><path class="aa460c82-9359-4781-81a4-1dbd3e5f7753" d="M484.038,251.863,470.792,261.4l-11.339-9.533H437.478a186.846,186.846,0,0,1-51.866,127.489l16.358,16.357,1.1,12.695,13.857,2.258L428.1,421.84A245.751,245.751,0,0,0,497.48,251.863Z" transform="translate(-1.005 -0.995)"/><path class="f6e358e6-b86c-44d5-b19b-ae7cd3aad595" d="M249.785,481.787l-9.533-13.245,9.532-11.339V437.5a186.851,186.851,0,0,1-129.445-52.179l-14.4,14.4-12.7,1.1-2.258,13.857L77.852,427.809A245.8,245.8,0,0,0,249.786,497.5Z" transform="translate(-1.005 -0.995)"/><path class="e7201e47-2148-41b8-9a23-1eaf3d0a4a2a" d="M417.591,87.118l-2.625,16.108L400.207,104.5,384.852,119.86a186.857,186.857,0,0,1,52.61,127.005h23.814l9.755,8.2,11.394-8.2h15.04A245.747,245.747,0,0,0,427.339,77.369Z" transform="translate(-1.005 -0.995)"/><path class="e7201e47-2148-41b8-9a23-1eaf3d0a4a2a" d="M414.531,415.34l-16.109-2.625-1.276-14.758-15.037-15.035A186.912,186.912,0,0,1,254.784,437.44v21.585l-8.2,9.755,8.2,11.394v17.27A245.782,245.782,0,0,0,424.6,425.409Z" transform="translate(-1.005 -0.995)"/></svg>