<svg id="bb2f12e1-99e2-456a-8793-fb6022766ebb" data-name="Calque 1" xmlns="http://www.w3.org/2000/svg" viewBox="0 0 603.03 603.01"><defs><style>.a4e1134b-936f-4449-8ced-24e3dcfbad66{fill:#fa94bc;}.a157dd2d-7a7b-40e3-89a2-fe076adc0340,.a4e1134b-936f-4449-8ced-24e3dcfbad66,.a53f0f9b-b87d-498c-a384-3fc2afc90209,.af5d60a9-eea1-4aab-b063-de9f27977c87{stroke:#ed54a8;stroke-width:3px;}.a157dd2d-7a7b-40e3-89a2-fe076adc0340,.a4e1134b-936f-4449-8ced-24e3dcfbad66,.a53f0f9b-b87d-498c-a384-3fc2afc90209,.af5d60a9-eea1-4aab-b063-de9f27977c87,.b0d2231e-f33c-41b3-82a0-80deb9da4df3{stroke-miterlimit:10;}.af5d60a9-eea1-4aab-b063-de9f27977c87{fill:#f43d3d;}.a157dd2d-7a7b-40e3-89a2-fe076adc0340{fill:#d495f9;}.a53f0f9b-b87d-498c-a384-3fc2afc90209{fill:#aff9c9;}.b0d2231e-f33c-41b3-82a0-80deb9da4df3{font-size:200px;fill:#8f555f;stroke:#8f555f;stroke-width:14px;font-family:Poppins-Regular, Poppins;}</style></defs><path class="a4e1134b-936f-4449-8ced-24e3dcfbad66" d="M104.07,499.2l3.18-19.52,17.89-1.55L141,462.27a226.51,226.51,0,0,1-65.77-156.7H51.11l-11.82-9.94-13.81,9.94H2.5a297.92,297.92,0,0,0,87,208.2Z" transform="translate(-0.99 -0.99)"/><path class="af5d60a9-eea1-4aab-b063-de9f27977c87" d="M107.78,101.36l19.53,3.18,1.54,17.89,16.26,16.25A226.49,226.49,0,0,1,301.43,75.23V48.41l9.94-11.83-9.94-13.81V2.5A298,298,0,0,0,93.6,87.18Z" transform="translate(-0.99 -0.99)"/><path class="a157dd2d-7a7b-40e3-89a2-fe076adc0340" d="M497.25,119l2.74-16.8L513.21,89A297.92,297.92,0,0,0,307.49,2.55V20.82l11.55,16L307.49,50.62V75.28A226.55,226.55,0,0,1,461.7,140.45l20.16-20.16Z" transform="translate(-0.99 -0.99)"/><path class="a157dd2d-7a7b-40e3-89a2-fe076adc0340" d="M23.52,299.51,39.58,288l13.74,11.55H75.24a226.51,226.51,0,0,1,65.55-156.57L123,125.15l-1.34-15.39L104.88,107,89.29,91.44A297.9,297.9,0,0,0,2.5,299.51Z" transform="translate(-0.99 -0.99)"/><path class="af5d60a9-eea1-4aab-b063-de9f27977c87" d="M586.2,304.76l-16.05,11.55L556.4,304.76H529.76a226.4,226.4,0,0,1-62.87,154.53l19.83,19.83,1.33,15.39,16.8,2.73,13.55,13.55a297.86,297.86,0,0,0,84.1-206Z" transform="translate(-0.99 -0.99)"/><path class="a53f0f9b-b87d-498c-a384-3fc2afc90209" d="M302.24,583.45,290.68,567.4l11.56-13.75V529.77a226.55,226.55,0,0,1-156.92-63.25L127.87,484l-15.39,1.33-2.74,16.8L93.82,518A298,298,0,0,0,302.24,602.5Z" transform="translate(-0.99 -0.99)"/><path class="a4e1134b-936f-4449-8ced-24e3dcfbad66" d="M505.66,105.07l-3.19,19.52-17.89,1.55L466,144.75a226.48,226.48,0,0,1,63.77,154h28.87l11.83,9.94,13.81-9.94h18.23a297.84,297.84,0,0,0-85-205.45Z" transform="translate(-0.99 -0.99)"/><path class="a4e1134b-936f-4449-8ced-24e3dcfbad66" d="M502,502.91l-19.53-3.18-1.55-17.89-18.23-18.22A226.57,226.57,0,0,1,308.3,529.7v26.16l-9.94,11.83,9.94,13.81v20.93a297.93,297.93,0,0,0,205.85-87.31Z" transform="translate(-0.99 -0.99)"/><text class="b0d2231e-f33c-41b3-82a0-80deb9da4df3" transform="translate(156.22 374.47)">FIN</text></svg>