<svg id="bc2c7786-8ffb-4e8c-92ff-13713a29a06a" data-name="Calque 1" xmlns="http://www.w3.org/2000/svg" viewBox="0 0 500 500"><defs><style>.a7be4fd2-033f-42c7-a67d-6eeaddfa0e68,.ab87c39a-28a4-4266-b412-8dab5f53704c{fill:#c481ad;}.bd9a6cb2-0c3b-4c40-8a5b-b16537f0102f{fill:none;stroke:#9b618d;}.a7be4fd2-033f-42c7-a67d-6eeaddfa0e68,.bd9a6cb2-0c3b-4c40-8a5b-b16537f0102f{stroke-miterlimit:10;stroke-width:5px;}.a7be4fd2-033f-42c7-a67d-6eeaddfa0e68{stroke:#935d85;}.a89acc6e-0e7e-4851-a5a3-06435eb8b9e0{fill:#fff;opacity:0.3;}.ab69d54c-6695-460b-a861-8c63231216f3{fill:#a36998;}</style></defs><path class="ab87c39a-28a4-4266-b412-8dab5f53704c" d="M15,434.48a3,3,0,0,0,2.25,1.06,2.22,2.22,0,0,0,1.87-1.65l2.77-10.58,5.61,9.38a2.27,2.27,0,0,0,4.12-.58l2.77-10.58L40,430.91a2.27,2.27,0,0,0,4.12-.59l2.77-10.58,5.61,9.38a2.27,2.27,0,0,0,4.12-.58L59.34,418,65,427.34a2.26,2.26,0,0,0,4.12-.59l2.77-10.57,5.61,9.38a2.27,2.27,0,0,0,4.12-.59l2.76-10.58L90,423.77a2.26,2.26,0,0,0,4.12-.59l2.76-10.57,5.62,9.38a2.27,2.27,0,0,0,4.12-.59l2.76-10.58L115,420.2a2.27,2.27,0,0,0,4.12-.58L121.83,409l5.62,9.38a2.26,2.26,0,0,0,4.12-.59l2.76-10.57,5.62,9.38a2.27,2.27,0,0,0,4.12-.59l2.76-10.58,5.62,9.38a2.26,2.26,0,0,0,4.11-.59l2.77-10.57,5.62,9.38a2.26,2.26,0,0,0,4.11-.59l2.77-10.58,5.62,9.38a2.26,2.26,0,0,0,4.11-.58l2.77-10.58L190,409.5a2.26,2.26,0,0,0,4.11-.59l2.77-10.58,5.62,9.38a2.26,2.26,0,0,0,4.11-.58l2.77-10.58,5.62,9.38a2.26,2.26,0,0,0,4.11-.59l2.77-10.57,5.62,9.38a2.26,2.26,0,0,0,4.11-.59L234.33,393l5.62,9.38a2.26,2.26,0,0,0,4.11-.59l2.77-10.57,5.61,9.38a2.27,2.27,0,0,0,4.12-.59l2.77-10.58,5.61,9.38a2.27,2.27,0,0,0,4.12-.58l2.77-10.58,5.61,9.38a2.26,2.26,0,0,0,4.12-.59l2.77-10.57,5.61,9.38a2.27,2.27,0,0,0,4.12-.59l2.77-10.58,5.61,9.38a2.26,2.26,0,0,0,4.12-.59l2.77-10.57,5.61,9.38a2.27,2.27,0,0,0,4.12-.59l2.77-10.58,5.61,9.38a2.26,2.26,0,0,0,4.12-.59l2.77-10.57,5.61,9.38a2.27,2.27,0,0,0,4.12-.59l5.51-21.07a2,2,0,0,0,.06-.64h0L347,346.24c-23.06,2.46-115.38,12.68-188.79,30.52-32.35,7.86-87.93,23.73-101.81,27.79s-26.77,8.08-26.77,8.08c-9.66,2.92-17.43,5.48-22.35,7.15C7.53,420.41,12.57,432.19,15,434.48Z"/><path class="ab87c39a-28a4-4266-b412-8dab5f53704c" d="M349.68,22.25h0a2.07,2.07,0,0,0-.15-.63L341.07,1.54a2.27,2.27,0,0,0-4.16,0l-4.23,10.08L328.44,1.54a2.27,2.27,0,0,0-4.16,0l-4.23,10.08L315.82,1.54a2.27,2.27,0,0,0-4.16,0l-4.24,10.08L303.19,1.54a2.27,2.27,0,0,0-4.16,0L294.8,11.62,290.56,1.54a2.27,2.27,0,0,0-4.16,0l-4.23,10.08L277.94,1.54a2.27,2.27,0,0,0-4.16,0l-4.24,10.08L265.31,1.54a2.27,2.27,0,0,0-4.16,0l-4.23,10.08L252.68,1.54a2.26,2.26,0,0,0-4.15,0l-4.24,10.08L240.06,1.54a2.27,2.27,0,0,0-4.16,0l-4.23,10.08L227.43,1.54a2.27,2.27,0,0,0-4.16,0L219,11.62,214.81,1.54a2.27,2.27,0,0,0-4.16,0l-4.24,10.08L202.18,1.54a2.27,2.27,0,0,0-4.16,0l-4.23,10.08L189.55,1.54a2.27,2.27,0,0,0-4.16,0l-4.23,10.08L176.93,1.54a2.27,2.27,0,0,0-4.16,0l-4.24,10.08L164.3,1.54a2.27,2.27,0,0,0-4.16,0l-4.23,10.08L151.67,1.54a2.26,2.26,0,0,0-4.15,0l-4.24,10.08L139.05,1.54a2.27,2.27,0,0,0-4.16,0l-4.23,10.08L126.42,1.54a2.27,2.27,0,0,0-4.16,0L118,11.62,113.8,1.54a2.27,2.27,0,0,0-4.16,0L105.4,11.62,101.17,1.54a2.27,2.27,0,0,0-4.16,0L92.78,11.62,88.54,1.54a2.27,2.27,0,0,0-4.16,0L80.15,11.62,75.92,1.54a2.27,2.27,0,0,0-4.16,0L67.52,11.62,63.29,1.54a2.27,2.27,0,0,0-4.16,0L54.9,11.62,50.66,1.54a2.26,2.26,0,0,0-4.15,0L42.27,11.62,38,1.54a2.27,2.27,0,0,0-4.16,0L29.65,11.62,25.41,1.54a2.27,2.27,0,0,0-4.16,0L17,11.62,12.79,1.54a2.27,2.27,0,0,0-4.16,0L.19,21.62a2.07,2.07,0,0,0-.15.63H0Q1.23,183,2.46,343.72a511.28,511.28,0,0,0,95.92,17.65c30.34,2.63,52.94,1.28,63.69,1.53q93.7,2.18,187.43,3.88a1.25,1.25,0,0,0,.1-.31,1.92,1.92,0,0,0,0-.32h0Z"/><rect class="bd9a6cb2-0c3b-4c40-8a5b-b16537f0102f" x="24.99" y="46.82" width="299.71" height="294.77" rx="35.26"/><line class="bd9a6cb2-0c3b-4c40-8a5b-b16537f0102f" x1="36.01" y1="56.98" x2="313.82" y2="56.98"/><line class="bd9a6cb2-0c3b-4c40-8a5b-b16537f0102f" x1="29.17" y1="67.15" x2="319.99" y2="67.15"/><line class="bd9a6cb2-0c3b-4c40-8a5b-b16537f0102f" x1="24.99" y1="77.31" x2="324.7" y2="77.31"/><line class="bd9a6cb2-0c3b-4c40-8a5b-b16537f0102f" x1="24.99" y1="87.48" x2="324.7" y2="87.48"/><line class="bd9a6cb2-0c3b-4c40-8a5b-b16537f0102f" x1="24.99" y1="97.64" x2="324.7" y2="97.64"/><line class="bd9a6cb2-0c3b-4c40-8a5b-b16537f0102f" x1="24.99" y1="107.81" x2="324.7" y2="107.81"/><line class="bd9a6cb2-0c3b-4c40-8a5b-b16537f0102f" x1="24.99" y1="117.97" x2="324.7" y2="117.97"/><line class="bd9a6cb2-0c3b-4c40-8a5b-b16537f0102f" x1="24.99" y1="128.13" x2="324.7" y2="128.13"/><line class="bd9a6cb2-0c3b-4c40-8a5b-b16537f0102f" x1="24.99" y1="138.3" x2="324.7" y2="138.3"/><line class="bd9a6cb2-0c3b-4c40-8a5b-b16537f0102f" x1="24.99" y1="148.46" x2="324.7" y2="148.46"/><line class="bd9a6cb2-0c3b-4c40-8a5b-b16537f0102f" x1="24.99" y1="158.63" x2="324.7" y2="158.63"/><line class="bd9a6cb2-0c3b-4c40-8a5b-b16537f0102f" x1="24.99" y1="168.79" x2="324.7" y2="168.79"/><line class="bd9a6cb2-0c3b-4c40-8a5b-b16537f0102f" x1="24.99" y1="178.96" x2="324.7" y2="178.96"/><line class="bd9a6cb2-0c3b-4c40-8a5b-b16537f0102f" x1="24.99" y1="189.12" x2="324.7" y2="189.12"/><line class="bd9a6cb2-0c3b-4c40-8a5b-b16537f0102f" x1="24.99" y1="199.29" x2="324.7" y2="199.29"/><line class="bd9a6cb2-0c3b-4c40-8a5b-b16537f0102f" x1="24.99" y1="209.45" x2="324.7" y2="209.45"/><line class="bd9a6cb2-0c3b-4c40-8a5b-b16537f0102f" x1="24.99" y1="219.61" x2="324.7" y2="219.61"/><line class="bd9a6cb2-0c3b-4c40-8a5b-b16537f0102f" x1="24.99" y1="229.78" x2="324.7" y2="229.78"/><line class="bd9a6cb2-0c3b-4c40-8a5b-b16537f0102f" x1="24.99" y1="239.94" x2="324.7" y2="239.94"/><line class="bd9a6cb2-0c3b-4c40-8a5b-b16537f0102f" x1="24.99" y1="250.11" x2="324.7" y2="250.11"/><line class="bd9a6cb2-0c3b-4c40-8a5b-b16537f0102f" x1="24.99" y1="260.27" x2="324.7" y2="260.27"/><line class="bd9a6cb2-0c3b-4c40-8a5b-b16537f0102f" x1="24.99" y1="270.44" x2="324.7" y2="270.44"/><line class="bd9a6cb2-0c3b-4c40-8a5b-b16537f0102f" x1="24.99" y1="280.6" x2="324.7" y2="280.6"/><line class="bd9a6cb2-0c3b-4c40-8a5b-b16537f0102f" x1="24.99" y1="290.76" x2="324.7" y2="290.76"/><line class="bd9a6cb2-0c3b-4c40-8a5b-b16537f0102f" x1="24.99" y1="300.93" x2="324.7" y2="300.93"/><line class="bd9a6cb2-0c3b-4c40-8a5b-b16537f0102f" x1="24.99" y1="311.09" x2="324.7" y2="311.09"/><ellipse class="a7be4fd2-033f-42c7-a67d-6eeaddfa0e68" cx="174.85" cy="194.2" rx="124.88" ry="123.33"/><ellipse class="a7be4fd2-033f-42c7-a67d-6eeaddfa0e68" cx="174.85" cy="194.2" rx="99.9" ry="98.26"/><path class="a89acc6e-0e7e-4851-a5a3-06435eb8b9e0" d="M174.85,81.21C111.4,81.21,60,131.8,60,194.2s51.44,113,114.89,113,114.89-50.59,114.89-113S238.3,81.21,174.85,81.21Zm0,216.16C116.91,297.37,70,251.18,70,194.2S116.91,91,174.85,91s104.9,46.19,104.9,103.17S232.78,297.37,174.85,297.37Z"/><path class="ab69d54c-6695-460b-a861-8c63231216f3" d="M263.05,199.89c-6.62,8.44-22.5,11-31.6,5.09-5.95-3.86-7.5-12.23-10.34-28.82-6.12-35.71-9.11-53.6-5.74-55.37,7.29-3.82,24.5,15.81,27,18.65C254.83,153.65,274.89,184.79,263.05,199.89Z"/><path class="ab69d54c-6695-460b-a861-8c63231216f3" d="M85.38,186.64c3.2-37.26,37.23-70.42,50.71-65.85,11.11,3.77,9.86,33.7,9.77,35.6-1.27,25.63-14.71,32.68-18.54,54-6.46,35.89,23.18,62.94,19.11,65.8C141.09,279.92,80.81,239.91,85.38,186.64Z"/><line class="bd9a6cb2-0c3b-4c40-8a5b-b16537f0102f" x1="27.54" y1="322.27" x2="318.72" y2="322.78"/><line class="bd9a6cb2-0c3b-4c40-8a5b-b16537f0102f" x1="35.44" y1="332.43" x2="312.26" y2="332.63"/></svg>