<svg id="b19ea517-26db-4927-bf09-a6ae40f7675e" data-name="Calque 1" xmlns="http://www.w3.org/2000/svg" viewBox="0 0 500 500"><defs><style>.f9bd7c39-a0b3-4f70-9b24-2724f7569b15{fill:#fffbee;}.bfe42d60-9394-41ce-88f8-9f8437b0ca38{fill:#fff2d2;}.b63c95d1-0ec7-48de-b59f-18d36c78ffbe{fill:#fff;}.ed2f00f6-5353-4064-ad74-b843a832e7a8{fill:#e5dbc1;}.b02c5437-0d86-43c8-922c-0d962a18ed06,.b96f935f-5b6a-4fd1-a642-0cbc63463db2{fill:#c481ad;}.ad0920c2-a8ff-472e-88da-449c9fd67344{fill:none;stroke:#9b618d;}.ad0920c2-a8ff-472e-88da-449c9fd67344,.b96f935f-5b6a-4fd1-a642-0cbc63463db2{stroke-miterlimit:10;stroke-width:5px;}.b96f935f-5b6a-4fd1-a642-0cbc63463db2{stroke:#935d85;}.a4e0a5d1-78f7-4d33-be42-460b1ce4e9c3{fill:#a36998;}</style></defs><path class="f9bd7c39-a0b3-4f70-9b24-2724f7569b15" d="M204.25,231a107.5,107.5,0,1,0,107.5,107.5A107.5,107.5,0,0,0,204.25,231Zm0,205.66a98.16,98.16,0,1,1,98.15-98.16A98.16,98.16,0,0,1,204.25,436.7Z"/><circle class="bfe42d60-9394-41ce-88f8-9f8437b0ca38" cx="204.25" cy="338.54" r="100"/><circle class="b63c95d1-0ec7-48de-b59f-18d36c78ffbe" cx="206.55" cy="353.14" r="25"/><path class="ed2f00f6-5353-4064-ad74-b843a832e7a8" d="M116,336.71a102.4,102.4,0,0,1,69.27-96.89A100,100,0,0,0,203.46,438,102.37,102.37,0,0,1,116,336.71Z"/><path class="b02c5437-0d86-43c8-922c-0d962a18ed06" d="M349.75,22.09h0a2.13,2.13,0,0,0-.15-.64L341.15,1.38a2.26,2.26,0,0,0-4.16,0l-4.24,10.08L328.52,1.38a2.26,2.26,0,0,0-4.16,0l-4.23,10.08L315.89,1.38a2.26,2.26,0,0,0-4.16,0L307.5,11.46,303.27,1.38a2.26,2.26,0,0,0-4.16,0l-4.24,10.08L290.64,1.38a2.26,2.26,0,0,0-4.16,0l-4.23,10.08L278,1.38a2.25,2.25,0,0,0-4.15,0l-4.24,10.08L265.39,1.38a2.26,2.26,0,0,0-4.16,0L257,11.46,252.76,1.38a2.26,2.26,0,0,0-4.16,0l-4.23,10.08L240.14,1.38a2.26,2.26,0,0,0-4.16,0l-4.24,10.08L227.51,1.38a2.26,2.26,0,0,0-4.16,0l-4.23,10.08L214.88,1.38a2.26,2.26,0,0,0-4.16,0l-4.23,10.08L202.26,1.38a2.26,2.26,0,0,0-4.16,0l-4.24,10.08L189.63,1.38a2.26,2.26,0,0,0-4.16,0l-4.23,10.08L177,1.38a2.25,2.25,0,0,0-4.15,0l-4.24,10.08L164.38,1.38a2.26,2.26,0,0,0-4.16,0L156,11.46,151.75,1.38a2.26,2.26,0,0,0-4.16,0l-4.23,10.08L139.13,1.38a2.26,2.26,0,0,0-4.16,0l-4.24,10.08L126.5,1.38a2.26,2.26,0,0,0-4.16,0l-4.23,10.08L113.87,1.38a2.25,2.25,0,0,0-4.15,0l-4.24,10.08L101.25,1.38a2.26,2.26,0,0,0-4.16,0L92.85,11.46,88.62,1.38a2.26,2.26,0,0,0-4.16,0L80.23,11.46,76,1.38a2.25,2.25,0,0,0-4.15,0L67.6,11.46,63.37,1.38a2.26,2.26,0,0,0-4.16,0L55,11.46,50.74,1.38a2.26,2.26,0,0,0-4.16,0L42.35,11.46,38.12,1.38a2.26,2.26,0,0,0-4.16,0L29.72,11.46,25.49,1.38a2.26,2.26,0,0,0-4.16,0L17.1,11.46,12.86,1.38a2.25,2.25,0,0,0-4.15,0L.27,21.45a2.13,2.13,0,0,0-.15.64h0Q1.32,182.82,2.54,343.55A511.28,511.28,0,0,0,98.46,361.2a566.45,566.45,0,0,0,63.69,1.54c41.94-1.23,56.4-6,84.33-7.59,24.06-1.36,59.15-.39,103.1,11.46a1.62,1.62,0,0,0,.1-.31,1.77,1.77,0,0,0,.05-.32h0Z"/><rect class="ad0920c2-a8ff-472e-88da-449c9fd67344" x="25.07" y="46.65" width="299.71" height="294.77" rx="35.26"/><line class="ad0920c2-a8ff-472e-88da-449c9fd67344" x1="36.09" y1="56.82" x2="313.9" y2="56.82"/><line class="ad0920c2-a8ff-472e-88da-449c9fd67344" x1="29.25" y1="66.98" x2="320.07" y2="66.98"/><line class="ad0920c2-a8ff-472e-88da-449c9fd67344" x1="25.07" y1="77.15" x2="324.78" y2="77.15"/><line class="ad0920c2-a8ff-472e-88da-449c9fd67344" x1="25.07" y1="87.31" x2="324.78" y2="87.31"/><line class="ad0920c2-a8ff-472e-88da-449c9fd67344" x1="25.07" y1="97.47" x2="324.78" y2="97.47"/><line class="ad0920c2-a8ff-472e-88da-449c9fd67344" x1="25.07" y1="107.64" x2="324.78" y2="107.64"/><line class="ad0920c2-a8ff-472e-88da-449c9fd67344" x1="25.07" y1="117.8" x2="324.78" y2="117.8"/><line class="ad0920c2-a8ff-472e-88da-449c9fd67344" x1="25.07" y1="127.97" x2="324.78" y2="127.97"/><line class="ad0920c2-a8ff-472e-88da-449c9fd67344" x1="25.07" y1="138.13" x2="324.78" y2="138.13"/><line class="ad0920c2-a8ff-472e-88da-449c9fd67344" x1="25.07" y1="148.3" x2="324.78" y2="148.3"/><line class="ad0920c2-a8ff-472e-88da-449c9fd67344" x1="25.07" y1="158.46" x2="324.78" y2="158.46"/><line class="ad0920c2-a8ff-472e-88da-449c9fd67344" x1="25.07" y1="168.63" x2="324.78" y2="168.63"/><line class="ad0920c2-a8ff-472e-88da-449c9fd67344" x1="25.07" y1="178.79" x2="324.78" y2="178.79"/><line class="ad0920c2-a8ff-472e-88da-449c9fd67344" x1="25.07" y1="188.95" x2="324.78" y2="188.95"/><line class="ad0920c2-a8ff-472e-88da-449c9fd67344" x1="25.07" y1="199.12" x2="324.78" y2="199.12"/><line class="ad0920c2-a8ff-472e-88da-449c9fd67344" x1="25.07" y1="209.28" x2="324.78" y2="209.28"/><line class="ad0920c2-a8ff-472e-88da-449c9fd67344" x1="25.07" y1="219.45" x2="324.78" y2="219.45"/><line class="ad0920c2-a8ff-472e-88da-449c9fd67344" x1="25.07" y1="229.61" x2="324.78" y2="229.61"/><line class="ad0920c2-a8ff-472e-88da-449c9fd67344" x1="25.07" y1="239.78" x2="324.78" y2="239.78"/><line class="ad0920c2-a8ff-472e-88da-449c9fd67344" x1="25.07" y1="249.94" x2="324.78" y2="249.94"/><line class="ad0920c2-a8ff-472e-88da-449c9fd67344" x1="25.07" y1="260.1" x2="324.78" y2="260.1"/><line class="ad0920c2-a8ff-472e-88da-449c9fd67344" x1="25.07" y1="270.27" x2="324.78" y2="270.27"/><line class="ad0920c2-a8ff-472e-88da-449c9fd67344" x1="25.07" y1="280.43" x2="324.78" y2="280.43"/><line class="ad0920c2-a8ff-472e-88da-449c9fd67344" x1="25.07" y1="290.6" x2="324.78" y2="290.6"/><line class="ad0920c2-a8ff-472e-88da-449c9fd67344" x1="25.07" y1="300.76" x2="324.78" y2="300.76"/><line class="ad0920c2-a8ff-472e-88da-449c9fd67344" x1="25.07" y1="310.93" x2="324.78" y2="310.93"/><ellipse class="b96f935f-5b6a-4fd1-a642-0cbc63463db2" cx="174.93" cy="194.04" rx="124.88" ry="123.33"/><ellipse class="b96f935f-5b6a-4fd1-a642-0cbc63463db2" cx="174.93" cy="194.04" rx="99.9" ry="98.26"/><path class="a4e0a5d1-78f7-4d33-be42-460b1ce4e9c3" d="M263.13,199.73c-6.62,8.43-22.5,11-31.6,5.08C225.58,201,224,192.58,221.19,176c-6.12-35.71-9.12-53.61-5.75-55.37,7.3-3.82,24.51,15.8,27,18.64C254.91,153.48,275,184.63,263.13,199.73Z"/><path class="a4e0a5d1-78f7-4d33-be42-460b1ce4e9c3" d="M85.46,186.47c3.2-37.26,37.23-70.41,50.71-65.84,11.11,3.76,9.86,33.69,9.76,35.59-1.27,25.63-14.7,32.68-18.53,54-6.47,35.89,23.18,62.94,19.11,65.8C141.17,279.75,80.89,239.75,85.46,186.47Z"/><line class="ad0920c2-a8ff-472e-88da-449c9fd67344" x1="27.61" y1="322.1" x2="318.79" y2="322.61"/><line class="ad0920c2-a8ff-472e-88da-449c9fd67344" x1="35.52" y1="332.27" x2="312.34" y2="332.47"/></svg>