<svg id="a31285af-50d8-4be4-a326-69b114b96871" data-name="Calque 1" xmlns="http://www.w3.org/2000/svg" viewBox="0 0 500 500"><defs><style>.ad28283e-d657-4db8-8ba5-90909f510839,.afcf3081-02da-43c4-b492-d68beb70b606{fill:#c481ad;}.bbe7f7bd-36c6-4ce7-8c98-3920c1940173{fill:none;stroke:#9b618d;}.afcf3081-02da-43c4-b492-d68beb70b606,.bbe7f7bd-36c6-4ce7-8c98-3920c1940173{stroke-miterlimit:10;stroke-width:5px;}.afcf3081-02da-43c4-b492-d68beb70b606{stroke:#935d85;}.b1d8b538-c81d-4914-80cc-a801078f62ec{fill:#fff;opacity:0.3;}.f4e4eb52-686e-40f5-bbc5-d6b55a5ca101{fill:#a36998;}</style></defs><path class="ad28283e-d657-4db8-8ba5-90909f510839" d="M8.54,397.67A3,3,0,0,0,10.62,399a2.2,2.2,0,0,0,2.08-1.37l4.23-10.07,4.24,10.07a2.25,2.25,0,0,0,4.15,0l4.24-10.07,4.23,10.07a2.26,2.26,0,0,0,4.16,0l4.24-10.07,4.23,10.07a2.26,2.26,0,0,0,4.16,0l4.23-10.07,4.24,10.07a2.25,2.25,0,0,0,4.15,0l4.24-10.07,4.23,10.07a2.26,2.26,0,0,0,4.16,0l4.23-10.07,4.24,10.07a2.26,2.26,0,0,0,4.16,0l4.23-10.07,4.23,10.07a2.26,2.26,0,0,0,4.16,0l4.24-10.07,4.23,10.07a2.26,2.26,0,0,0,4.16,0l4.23-10.07,4.24,10.07a2.25,2.25,0,0,0,4.15,0l4.24-10.07,4.23,10.07a2.26,2.26,0,0,0,4.16,0l4.23-10.07,4.24,10.07a2.26,2.26,0,0,0,4.16,0l4.23-10.07,4.24,10.07a2.25,2.25,0,0,0,4.15,0l4.24-10.07,4.23,10.07a2.26,2.26,0,0,0,4.16,0l4.23-10.07,4.24,10.07a2.26,2.26,0,0,0,4.16,0l4.23-10.07,4.23,10.07a2.26,2.26,0,0,0,4.16,0l4.24-10.07,4.23,10.07a2.26,2.26,0,0,0,4.16,0L219,387.6l4.24,10.07a2.25,2.25,0,0,0,4.15,0l4.24-10.07,4.23,10.07a2.26,2.26,0,0,0,4.16,0l4.23-10.07,4.24,10.07a2.26,2.26,0,0,0,4.16,0l4.23-10.07,4.23,10.07a2.26,2.26,0,0,0,4.16,0l4.24-10.07,4.23,10.07a2.26,2.26,0,0,0,4.16,0l4.23-10.07,4.24,10.07a2.26,2.26,0,0,0,4.16,0l4.23-10.07,4.23,10.07a2.26,2.26,0,0,0,4.16,0l4.24-10.07,4.23,10.07a2.26,2.26,0,0,0,4.16,0L320,387.6l4.24,10.07a2.25,2.25,0,0,0,4.15,0l4.24-10.07,4.23,10.07a2.26,2.26,0,0,0,4.16,0l8.43-20.07a2.08,2.08,0,0,0,.16-.64h0l.12-19.72c-196.62,5.33-275,5.37-288.14,2.74a104,104,0,0,0-23-2.13,110,110,0,0,0-21.18,2.51A112,112,0,0,0,0,365.61l0,1.77C.47,369.45,6.58,395.14,8.54,397.67Z"/><path class="ad28283e-d657-4db8-8ba5-90909f510839" d="M349.53,21.12h0a2.07,2.07,0,0,0-.15-.63L340.93.41a2.27,2.27,0,0,0-4.16,0l-4.24,10.08L328.3.41a2.27,2.27,0,0,0-4.16,0l-4.23,10.08L315.67.41a2.27,2.27,0,0,0-4.16,0l-4.23,10.08L303.05.41a2.27,2.27,0,0,0-4.16,0l-4.24,10.08L290.42.41a2.27,2.27,0,0,0-4.16,0L282,10.49,277.79.41a2.26,2.26,0,0,0-4.15,0L269.4,10.49,265.17.41a2.27,2.27,0,0,0-4.16,0l-4.23,10.08L252.54.41a2.27,2.27,0,0,0-4.16,0l-4.23,10.08L239.92.41a2.27,2.27,0,0,0-4.16,0l-4.24,10.08L227.29.41a2.27,2.27,0,0,0-4.16,0L218.9,10.49,214.66.41a2.27,2.27,0,0,0-4.16,0l-4.23,10.08L202,.41a2.27,2.27,0,0,0-4.16,0l-4.24,10.08L189.41.41a2.27,2.27,0,0,0-4.16,0L181,10.49,176.78.41a2.26,2.26,0,0,0-4.15,0l-4.24,10.08L164.16.41a2.27,2.27,0,0,0-4.16,0l-4.23,10.08L151.53.41a2.27,2.27,0,0,0-4.16,0l-4.23,10.08L138.91.41a2.27,2.27,0,0,0-4.16,0l-4.24,10.08L126.28.41a2.27,2.27,0,0,0-4.16,0l-4.23,10.08L113.65.41a2.26,2.26,0,0,0-4.15,0l-4.24,10.08L101,.41a2.27,2.27,0,0,0-4.16,0L92.63,10.49,88.4.41a2.27,2.27,0,0,0-4.16,0L80,10.49,75.77.41a2.26,2.26,0,0,0-4.15,0L67.38,10.49,63.15.41A2.27,2.27,0,0,0,59,.41L54.76,10.49,50.52.41a2.27,2.27,0,0,0-4.16,0L42.13,10.49,37.9.41a2.27,2.27,0,0,0-4.16,0L29.5,10.49,25.27.41a2.27,2.27,0,0,0-4.16,0L16.88,10.49,12.64.41a2.26,2.26,0,0,0-4.15,0L.05,20.49a2.07,2.07,0,0,0-.15.63h0V365l.69,3.19a95.88,95.88,0,0,1,14.18-2.16,50.25,50.25,0,0,1,9.85.08c1.61.18,2.8.41,3.13.47,10,1.84,26.18,1.61,26.18,1.61,11.31-.16,131-1.07,295.45-2.56a2,2,0,0,0,.1-.32,1.67,1.67,0,0,0,.05-.31h0Z"/><rect class="bbe7f7bd-36c6-4ce7-8c98-3920c1940173" x="24.85" y="45.68" width="299.71" height="294.77" rx="35.26"/><line class="bbe7f7bd-36c6-4ce7-8c98-3920c1940173" x1="35.87" y1="55.85" x2="313.68" y2="55.85"/><line class="bbe7f7bd-36c6-4ce7-8c98-3920c1940173" x1="29.03" y1="66.01" x2="319.85" y2="66.01"/><line class="bbe7f7bd-36c6-4ce7-8c98-3920c1940173" x1="24.85" y1="76.18" x2="324.56" y2="76.18"/><line class="bbe7f7bd-36c6-4ce7-8c98-3920c1940173" x1="24.85" y1="86.34" x2="324.56" y2="86.34"/><line class="bbe7f7bd-36c6-4ce7-8c98-3920c1940173" x1="24.85" y1="96.51" x2="324.56" y2="96.51"/><line class="bbe7f7bd-36c6-4ce7-8c98-3920c1940173" x1="24.85" y1="106.67" x2="324.56" y2="106.67"/><line class="bbe7f7bd-36c6-4ce7-8c98-3920c1940173" x1="24.85" y1="116.84" x2="324.56" y2="116.84"/><line class="bbe7f7bd-36c6-4ce7-8c98-3920c1940173" x1="24.85" y1="127" x2="324.56" y2="127"/><line class="bbe7f7bd-36c6-4ce7-8c98-3920c1940173" x1="24.85" y1="137.17" x2="324.56" y2="137.17"/><line class="bbe7f7bd-36c6-4ce7-8c98-3920c1940173" x1="24.85" y1="147.33" x2="324.56" y2="147.33"/><line class="bbe7f7bd-36c6-4ce7-8c98-3920c1940173" x1="24.85" y1="157.49" x2="324.56" y2="157.49"/><line class="bbe7f7bd-36c6-4ce7-8c98-3920c1940173" x1="24.85" y1="167.66" x2="324.56" y2="167.66"/><line class="bbe7f7bd-36c6-4ce7-8c98-3920c1940173" x1="24.85" y1="177.82" x2="324.56" y2="177.82"/><line class="bbe7f7bd-36c6-4ce7-8c98-3920c1940173" x1="24.85" y1="187.99" x2="324.56" y2="187.99"/><line class="bbe7f7bd-36c6-4ce7-8c98-3920c1940173" x1="24.85" y1="198.15" x2="324.56" y2="198.15"/><line class="bbe7f7bd-36c6-4ce7-8c98-3920c1940173" x1="24.85" y1="208.32" x2="324.56" y2="208.32"/><line class="bbe7f7bd-36c6-4ce7-8c98-3920c1940173" x1="24.85" y1="218.48" x2="324.56" y2="218.48"/><line class="bbe7f7bd-36c6-4ce7-8c98-3920c1940173" x1="24.85" y1="228.64" x2="324.56" y2="228.64"/><line class="bbe7f7bd-36c6-4ce7-8c98-3920c1940173" x1="24.68" y1="238.81" x2="324.39" y2="238.81"/><line class="bbe7f7bd-36c6-4ce7-8c98-3920c1940173" x1="24.68" y1="248.97" x2="324.39" y2="248.97"/><line class="bbe7f7bd-36c6-4ce7-8c98-3920c1940173" x1="24.68" y1="259.14" x2="324.39" y2="259.14"/><line class="bbe7f7bd-36c6-4ce7-8c98-3920c1940173" x1="24.68" y1="269.3" x2="324.39" y2="269.3"/><line class="bbe7f7bd-36c6-4ce7-8c98-3920c1940173" x1="24.68" y1="279.47" x2="324.39" y2="279.47"/><line class="bbe7f7bd-36c6-4ce7-8c98-3920c1940173" x1="24.68" y1="289.63" x2="324.39" y2="289.63"/><line class="bbe7f7bd-36c6-4ce7-8c98-3920c1940173" x1="24.68" y1="299.79" x2="324.39" y2="299.79"/><line class="bbe7f7bd-36c6-4ce7-8c98-3920c1940173" x1="24.68" y1="309.96" x2="324.39" y2="309.96"/><ellipse class="afcf3081-02da-43c4-b492-d68beb70b606" cx="174.71" cy="193.07" rx="124.88" ry="123.33"/><ellipse class="afcf3081-02da-43c4-b492-d68beb70b606" cx="174.71" cy="193.07" rx="99.9" ry="98.26"/><path class="b1d8b538-c81d-4914-80cc-a801078f62ec" d="M174.71,80.07c-63.46,0-114.89,50.59-114.89,113s51.43,113,114.89,113,114.88-50.59,114.88-113S238.16,80.07,174.71,80.07Zm0,216.17c-57.94,0-104.9-46.19-104.9-103.17s47-103.17,104.9-103.17S279.6,136.09,279.6,193.07,232.64,296.24,174.71,296.24Z"/><path class="f4e4eb52-686e-40f5-bbc5-d6b55a5ca101" d="M262.73,198.76c-6.61,8.44-22.49,11-31.59,5.08-6-3.86-7.5-12.23-10.34-28.81-6.12-35.71-9.12-53.6-5.75-55.37,7.3-3.82,24.51,15.8,27,18.65C254.52,152.52,274.58,183.66,262.73,198.76Z"/><path class="f4e4eb52-686e-40f5-bbc5-d6b55a5ca101" d="M85.24,185.51c3.2-37.27,37.23-70.42,50.71-65.85,11.11,3.77,9.86,33.7,9.76,35.6-1.27,25.62-14.7,32.67-18.53,54-6.47,35.88,23.18,62.94,19.11,65.79C141,278.78,80.67,238.78,85.24,185.51Z"/><line class="bbe7f7bd-36c6-4ce7-8c98-3920c1940173" x1="27.22" y1="321.13" x2="318.4" y2="321.65"/><line class="bbe7f7bd-36c6-4ce7-8c98-3920c1940173" x1="35.13" y1="331.3" x2="311.95" y2="331.5"/></svg>