<svg id="f3d553dc-3c8c-4d26-bc0c-ac6e8efb2639" data-name="Calque 1" xmlns="http://www.w3.org/2000/svg" viewBox="0 0 500 500"><defs><style>.e625d72f-dbed-4f2c-81f5-58fcc254ffcd,.f22a8f27-0169-4f70-bda6-d5e1e48513b6{fill:#c481ad;}.b9e31fa6-395b-4b9b-8ad5-2aa4e6fc179a{fill:none;stroke:#9b618d;}.b9e31fa6-395b-4b9b-8ad5-2aa4e6fc179a,.f22a8f27-0169-4f70-bda6-d5e1e48513b6{stroke-miterlimit:10;stroke-width:5px;}.f22a8f27-0169-4f70-bda6-d5e1e48513b6{stroke:#935d85;}.e1f6ba7d-56e2-45b9-8800-592f457da814{fill:#fff;opacity:0.3;}.af9b8f50-9cf2-4dac-8566-94d834b18d77{fill:#a36998;}</style></defs><path class="e625d72f-dbed-4f2c-81f5-58fcc254ffcd" d="M8.75,398.63A2.93,2.93,0,0,0,10.83,400a2.23,2.23,0,0,0,2.08-1.37l4.23-10.08,4.24,10.08a2.25,2.25,0,0,0,4.15,0l4.24-10.08L34,398.63a2.26,2.26,0,0,0,4.16,0l4.23-10.08,4.24,10.08a2.26,2.26,0,0,0,4.16,0L55,388.55l4.23,10.08a2.26,2.26,0,0,0,4.16,0l4.24-10.08,4.23,10.08a2.26,2.26,0,0,0,4.16,0l4.23-10.08,4.24,10.08a2.26,2.26,0,0,0,4.16,0l4.23-10.08,4.23,10.08a2.26,2.26,0,0,0,4.16,0l4.24-10.08,4.23,10.08a2.26,2.26,0,0,0,4.16,0l4.23-10.08,4.24,10.08a2.25,2.25,0,0,0,4.15,0l4.24-10.08L135,398.63a2.26,2.26,0,0,0,4.16,0l4.23-10.08,4.24,10.08a2.26,2.26,0,0,0,4.16,0L156,388.55l4.23,10.08a2.26,2.26,0,0,0,4.16,0l4.24-10.08,4.23,10.08a2.26,2.26,0,0,0,4.16,0l4.23-10.08,4.24,10.08a2.26,2.26,0,0,0,4.16,0l4.23-10.08,4.23,10.08a2.26,2.26,0,0,0,4.16,0l4.24-10.08,4.23,10.08a2.26,2.26,0,0,0,4.16,0l4.23-10.08,4.24,10.08a2.25,2.25,0,0,0,4.15,0l4.24-10.08L236,398.63a2.26,2.26,0,0,0,4.16,0l4.23-10.08,4.24,10.08a2.26,2.26,0,0,0,4.16,0L257,388.55l4.23,10.08a2.26,2.26,0,0,0,4.16,0l4.24-10.08,4.23,10.08a2.26,2.26,0,0,0,4.16,0l4.23-10.08,4.24,10.08a2.25,2.25,0,0,0,4.15,0l4.24-10.08,4.23,10.08a2.26,2.26,0,0,0,4.16,0l4.24-10.08,4.23,10.08a2.26,2.26,0,0,0,4.16,0l4.23-10.08,4.24,10.08a2.25,2.25,0,0,0,4.15,0l4.24-10.08L337,398.63a2.26,2.26,0,0,0,4.16,0l8.43-20.08a2.09,2.09,0,0,0,.16-.63h0q.06-9.85.11-19.72c-198,3-277.26,5.73-289.84,8.1-7,1.33-12.69,2.15-24,3.8-6.71,1-11.32.54-18.63,1.92A95.37,95.37,0,0,0,2,376.27C2.23,377.22,6.79,396.11,8.75,398.63Z"/><path class="e625d72f-dbed-4f2c-81f5-58fcc254ffcd" d="M349.74,22.08h0a2.07,2.07,0,0,0-.15-.63L341.13,1.37a2.25,2.25,0,0,0-4.15,0l-4.24,10.08L328.51,1.37a2.26,2.26,0,0,0-4.16,0l-4.23,10.08L315.88,1.37a2.26,2.26,0,0,0-4.16,0l-4.23,10.08L303.26,1.37a2.26,2.26,0,0,0-4.16,0l-4.24,10.08L290.63,1.37a2.26,2.26,0,0,0-4.16,0l-4.23,10.08L278,1.37a2.25,2.25,0,0,0-4.15,0l-4.24,10.08L265.38,1.37a2.26,2.26,0,0,0-4.16,0L257,11.45,252.75,1.37a2.26,2.26,0,0,0-4.16,0l-4.23,10.08L240.12,1.37a2.25,2.25,0,0,0-4.15,0l-4.24,10.08L227.5,1.37a2.26,2.26,0,0,0-4.16,0l-4.23,10.08L214.87,1.37a2.26,2.26,0,0,0-4.16,0l-4.23,10.08L202.25,1.37a2.26,2.26,0,0,0-4.16,0l-4.24,10.08L189.62,1.37a2.26,2.26,0,0,0-4.16,0l-4.23,10.08L177,1.37a2.25,2.25,0,0,0-4.15,0L168.6,11.45,164.37,1.37a2.26,2.26,0,0,0-4.16,0L156,11.45,151.74,1.37a2.26,2.26,0,0,0-4.16,0l-4.23,10.08L139.12,1.37a2.26,2.26,0,0,0-4.16,0l-4.24,10.08L126.49,1.37a2.26,2.26,0,0,0-4.16,0L118.1,11.45,113.86,1.37a2.26,2.26,0,0,0-4.16,0l-4.23,10.08L101.24,1.37a2.26,2.26,0,0,0-4.16,0L92.84,11.45,88.61,1.37a2.26,2.26,0,0,0-4.16,0L80.22,11.45,76,1.37a2.25,2.25,0,0,0-4.15,0L67.59,11.45,63.36,1.37a2.26,2.26,0,0,0-4.16,0L55,11.45,50.73,1.37a2.26,2.26,0,0,0-4.16,0L42.34,11.45,38.11,1.37a2.26,2.26,0,0,0-4.16,0L29.71,11.45,25.48,1.37a2.26,2.26,0,0,0-4.16,0L17.09,11.45,12.85,1.37a2.26,2.26,0,0,0-4.16,0L.26,21.45a2.07,2.07,0,0,0-.15.63h0V366l.69,3.2A97.12,97.12,0,0,1,15,367a50,50,0,0,1,9.85.09c1.61.18,2.8.41,3.13.47,10,1.83,26.18,1.61,26.18,1.61,11.31-.16,131-1.07,295.45-2.56a2,2,0,0,0,.1-.32,1.77,1.77,0,0,0,.05-.32h0Z"/><rect class="b9e31fa6-395b-4b9b-8ad5-2aa4e6fc179a" x="25.06" y="46.64" width="299.71" height="294.77" rx="35.26"/><line class="b9e31fa6-395b-4b9b-8ad5-2aa4e6fc179a" x1="36.08" y1="56.81" x2="313.89" y2="56.81"/><line class="b9e31fa6-395b-4b9b-8ad5-2aa4e6fc179a" x1="29.24" y1="66.97" x2="320.06" y2="66.97"/><line class="b9e31fa6-395b-4b9b-8ad5-2aa4e6fc179a" x1="25.06" y1="77.14" x2="324.77" y2="77.14"/><line class="b9e31fa6-395b-4b9b-8ad5-2aa4e6fc179a" x1="25.06" y1="87.3" x2="324.77" y2="87.3"/><line class="b9e31fa6-395b-4b9b-8ad5-2aa4e6fc179a" x1="25.06" y1="97.47" x2="324.77" y2="97.47"/><line class="b9e31fa6-395b-4b9b-8ad5-2aa4e6fc179a" x1="25.06" y1="107.63" x2="324.77" y2="107.63"/><line class="b9e31fa6-395b-4b9b-8ad5-2aa4e6fc179a" x1="25.06" y1="117.79" x2="324.77" y2="117.79"/><line class="b9e31fa6-395b-4b9b-8ad5-2aa4e6fc179a" x1="25.06" y1="127.96" x2="324.77" y2="127.96"/><line class="b9e31fa6-395b-4b9b-8ad5-2aa4e6fc179a" x1="25.06" y1="138.12" x2="324.77" y2="138.12"/><line class="b9e31fa6-395b-4b9b-8ad5-2aa4e6fc179a" x1="25.06" y1="148.29" x2="324.77" y2="148.29"/><line class="b9e31fa6-395b-4b9b-8ad5-2aa4e6fc179a" x1="25.06" y1="158.45" x2="324.77" y2="158.45"/><line class="b9e31fa6-395b-4b9b-8ad5-2aa4e6fc179a" x1="25.06" y1="168.62" x2="324.77" y2="168.62"/><line class="b9e31fa6-395b-4b9b-8ad5-2aa4e6fc179a" x1="25.06" y1="178.78" x2="324.77" y2="178.78"/><line class="b9e31fa6-395b-4b9b-8ad5-2aa4e6fc179a" x1="25.06" y1="188.94" x2="324.77" y2="188.94"/><line class="b9e31fa6-395b-4b9b-8ad5-2aa4e6fc179a" x1="25.06" y1="199.11" x2="324.77" y2="199.11"/><line class="b9e31fa6-395b-4b9b-8ad5-2aa4e6fc179a" x1="25.06" y1="209.27" x2="324.77" y2="209.27"/><line class="b9e31fa6-395b-4b9b-8ad5-2aa4e6fc179a" x1="25.06" y1="219.44" x2="324.77" y2="219.44"/><line class="b9e31fa6-395b-4b9b-8ad5-2aa4e6fc179a" x1="25.06" y1="229.6" x2="324.77" y2="229.6"/><line class="b9e31fa6-395b-4b9b-8ad5-2aa4e6fc179a" x1="24.89" y1="239.77" x2="324.6" y2="239.77"/><line class="b9e31fa6-395b-4b9b-8ad5-2aa4e6fc179a" x1="24.89" y1="249.93" x2="324.6" y2="249.93"/><line class="b9e31fa6-395b-4b9b-8ad5-2aa4e6fc179a" x1="24.89" y1="260.1" x2="324.6" y2="260.1"/><line class="b9e31fa6-395b-4b9b-8ad5-2aa4e6fc179a" x1="24.89" y1="270.26" x2="324.6" y2="270.26"/><line class="b9e31fa6-395b-4b9b-8ad5-2aa4e6fc179a" x1="24.89" y1="280.42" x2="324.6" y2="280.42"/><line class="b9e31fa6-395b-4b9b-8ad5-2aa4e6fc179a" x1="24.89" y1="290.59" x2="324.6" y2="290.59"/><line class="b9e31fa6-395b-4b9b-8ad5-2aa4e6fc179a" x1="24.89" y1="300.75" x2="324.6" y2="300.75"/><line class="b9e31fa6-395b-4b9b-8ad5-2aa4e6fc179a" x1="24.89" y1="310.92" x2="324.6" y2="310.92"/><ellipse class="f22a8f27-0169-4f70-bda6-d5e1e48513b6" cx="174.91" cy="194.03" rx="124.88" ry="123.33"/><ellipse class="f22a8f27-0169-4f70-bda6-d5e1e48513b6" cx="174.91" cy="194.03" rx="99.9" ry="98.26"/><path class="e1f6ba7d-56e2-45b9-8800-592f457da814" d="M174.91,81C111.46,81,60,131.62,60,194s51.43,113,114.88,113S289.8,256.43,289.8,194,238.37,81,174.91,81Zm0,216.16C117,297.19,70,251,70,194S117,90.86,174.91,90.86,279.81,137.05,279.81,194,232.85,297.19,174.91,297.19Z"/><path class="af9b8f50-9cf2-4dac-8566-94d834b18d77" d="M262.94,199.72c-6.61,8.43-22.5,11-31.59,5.08-6-3.86-7.5-12.23-10.34-28.81-6.13-35.71-9.12-53.6-5.75-55.37,7.3-3.82,24.51,15.8,27,18.64C254.73,153.48,274.78,184.62,262.94,199.72Z"/><path class="af9b8f50-9cf2-4dac-8566-94d834b18d77" d="M85.45,186.47c3.2-37.27,37.22-70.42,50.71-65.85,11.11,3.77,9.86,33.7,9.76,35.59-1.27,25.63-14.7,32.68-18.54,54-6.46,35.88,23.19,62.93,19.12,65.79C141.16,279.74,80.87,239.74,85.45,186.47Z"/><line class="b9e31fa6-395b-4b9b-8ad5-2aa4e6fc179a" x1="27.43" y1="322.09" x2="318.61" y2="322.61"/><line class="b9e31fa6-395b-4b9b-8ad5-2aa4e6fc179a" x1="35.33" y1="332.26" x2="312.16" y2="332.46"/></svg>