<svg id="e6c4fde4-6853-44d9-83ea-450b541c233a" data-name="Calque 1" xmlns="http://www.w3.org/2000/svg" viewBox="0 0 500 500"><defs><style>.afc081a7-e3f3-4adb-85ed-7a768c5de228,.f079cc2f-43ee-4e91-a112-5ec101520b20{fill:#c481ad;}.e5fee3c4-836f-4b65-8a88-c00024f90a6d{fill:none;stroke:#9b618d;}.afc081a7-e3f3-4adb-85ed-7a768c5de228,.e5fee3c4-836f-4b65-8a88-c00024f90a6d{stroke-miterlimit:10;stroke-width:5px;}.afc081a7-e3f3-4adb-85ed-7a768c5de228{stroke:#935d85;}.ff0eb2e7-e843-4b19-8362-285ecf2990fe{fill:#fff;opacity:0.3;}.f71ed493-2d20-4ed4-8a3c-7a0e454ffd2d{fill:#a36998;}</style></defs><path class="f079cc2f-43ee-4e91-a112-5ec101520b20" d="M15.11,434.61a2.91,2.91,0,0,0,2.25,1.06A2.21,2.21,0,0,0,19.22,434L22,423.45l5.62,9.38a2.26,2.26,0,0,0,4.11-.59l2.77-10.58L40.11,431a2.26,2.26,0,0,0,4.11-.58L47,419.88l5.61,9.38a2.26,2.26,0,0,0,4.12-.59l2.77-10.57,5.61,9.38a2.27,2.27,0,0,0,4.12-.59L72,416.31l5.61,9.38a2.26,2.26,0,0,0,4.12-.59l2.77-10.57,5.61,9.38a2.27,2.27,0,0,0,4.12-.59L97,412.74l5.61,9.38a2.27,2.27,0,0,0,4.12-.58L109.49,411l5.61,9.38a2.27,2.27,0,0,0,4.12-.59L122,409.17l5.61,9.38a2.27,2.27,0,0,0,4.12-.58l2.77-10.58,5.61,9.38a2.26,2.26,0,0,0,4.12-.59L147,405.61,152.6,415a2.27,2.27,0,0,0,4.12-.59l2.76-10.58,5.62,9.38a2.26,2.26,0,0,0,4.12-.59L172,402l5.62,9.38a2.27,2.27,0,0,0,4.12-.59l2.76-10.58,5.62,9.38a2.27,2.27,0,0,0,4.12-.58L197,398.47l5.62,9.38a2.27,2.27,0,0,0,4.12-.59l2.76-10.57,5.62,9.38a2.26,2.26,0,0,0,4.11-.59L222,394.9l5.62,9.38a2.26,2.26,0,0,0,4.11-.59l2.77-10.57,5.62,9.38a2.26,2.26,0,0,0,4.11-.59L247,391.33l5.62,9.38a2.26,2.26,0,0,0,4.11-.58l2.77-10.58,5.62,9.38a2.26,2.26,0,0,0,4.11-.59L272,387.76l5.62,9.38a2.26,2.26,0,0,0,4.11-.58L284.48,386l5.62,9.38a2.26,2.26,0,0,0,4.11-.59L297,384.2l5.62,9.38a2.26,2.26,0,0,0,4.11-.59l2.77-10.58,5.61,9.38a2.26,2.26,0,0,0,4.12-.59L322,380.63l5.61,9.38a2.27,2.27,0,0,0,4.12-.59l2.77-10.58,5.61,9.38a2.27,2.27,0,0,0,4.12-.58l5.51-21.07a2.44,2.44,0,0,0,.07-.65h0q-1.33-9.78-2.68-19.55a393.35,393.35,0,0,1-91.31,21.57c-29.55,3.23-56.56,2.57-97,14.4-12.95,3.79-13.27,4.76-25.85,8.05-33.44,8.76-57.73,8.84-76.41,14.3-12.15,3.55-26.75,8.07-26.75,8.07h0c-9.67,2.91-17.43,5.48-22.35,7.14C7.68,420.54,12.72,432.33,15.11,434.61Z"/><path class="f079cc2f-43ee-4e91-a112-5ec101520b20" d="M349.83,22.39h0a2.09,2.09,0,0,0-.16-.63L341.22,1.68a2.27,2.27,0,0,0-4.16,0l-4.23,10.08L328.59,1.68a2.26,2.26,0,0,0-4.15,0L320.2,11.76,316,1.68a2.27,2.27,0,0,0-4.16,0l-4.23,10.08L303.34,1.68a2.27,2.27,0,0,0-4.16,0L295,11.76,290.72,1.68a2.27,2.27,0,0,0-4.16,0l-4.24,10.08L278.09,1.68a2.27,2.27,0,0,0-4.16,0L269.7,11.76,265.46,1.68a2.27,2.27,0,0,0-4.16,0l-4.23,10.08L252.84,1.68a2.27,2.27,0,0,0-4.16,0l-4.24,10.08L240.21,1.68a2.27,2.27,0,0,0-4.16,0l-4.23,10.08L227.58,1.68a2.26,2.26,0,0,0-4.15,0l-4.24,10.08L215,1.68a2.27,2.27,0,0,0-4.16,0l-4.23,10.08L202.33,1.68a2.27,2.27,0,0,0-4.16,0l-4.23,10.08L189.71,1.68a2.27,2.27,0,0,0-4.16,0l-4.24,10.08L177.08,1.68a2.27,2.27,0,0,0-4.16,0l-4.23,10.08L164.45,1.68a2.27,2.27,0,0,0-4.16,0l-4.23,10.08L151.83,1.68a2.27,2.27,0,0,0-4.16,0l-4.24,10.08L139.2,1.68a2.27,2.27,0,0,0-4.16,0l-4.23,10.08L126.57,1.68a2.26,2.26,0,0,0-4.15,0l-4.24,10.08L114,1.68a2.27,2.27,0,0,0-4.16,0l-4.23,10.08L101.32,1.68a2.27,2.27,0,0,0-4.16,0L92.93,11.76,88.7,1.68a2.27,2.27,0,0,0-4.16,0L80.3,11.76,76.07,1.68a2.27,2.27,0,0,0-4.16,0L67.68,11.76,63.44,1.68a2.27,2.27,0,0,0-4.16,0L55.05,11.76,50.82,1.68a2.27,2.27,0,0,0-4.16,0L42.42,11.76,38.19,1.68a2.27,2.27,0,0,0-4.16,0L29.8,11.76,25.56,1.68a2.26,2.26,0,0,0-4.15,0L17.17,11.76,12.94,1.68a2.27,2.27,0,0,0-4.16,0L.35,21.76a2.09,2.09,0,0,0-.16.63h0Q1.38,183.12,2.61,343.85A510.62,510.62,0,0,0,98.53,361.5,566.56,566.56,0,0,0,162.22,363c41.95-1.23,56.41-6,84.34-7.59,24.06-1.36,59.15-.39,103.09,11.47a2,2,0,0,0,.11-.32c0-.1,0-.21.05-.31h0Z"/><rect class="e5fee3c4-836f-4b65-8a88-c00024f90a6d" x="25.15" y="46.95" width="299.71" height="294.77" rx="35.26"/><line class="e5fee3c4-836f-4b65-8a88-c00024f90a6d" x1="36.16" y1="57.12" x2="313.97" y2="57.12"/><line class="e5fee3c4-836f-4b65-8a88-c00024f90a6d" x1="29.33" y1="67.28" x2="320.14" y2="67.28"/><line class="e5fee3c4-836f-4b65-8a88-c00024f90a6d" x1="25.15" y1="77.45" x2="324.85" y2="77.45"/><line class="e5fee3c4-836f-4b65-8a88-c00024f90a6d" x1="25.15" y1="87.61" x2="324.85" y2="87.61"/><line class="e5fee3c4-836f-4b65-8a88-c00024f90a6d" x1="25.15" y1="97.78" x2="324.85" y2="97.78"/><line class="e5fee3c4-836f-4b65-8a88-c00024f90a6d" x1="25.15" y1="107.94" x2="324.85" y2="107.94"/><line class="e5fee3c4-836f-4b65-8a88-c00024f90a6d" x1="25.15" y1="118.11" x2="324.85" y2="118.11"/><line class="e5fee3c4-836f-4b65-8a88-c00024f90a6d" x1="25.15" y1="128.27" x2="324.85" y2="128.27"/><line class="e5fee3c4-836f-4b65-8a88-c00024f90a6d" x1="25.15" y1="138.43" x2="324.85" y2="138.43"/><line class="e5fee3c4-836f-4b65-8a88-c00024f90a6d" x1="25.15" y1="148.6" x2="324.85" y2="148.6"/><line class="e5fee3c4-836f-4b65-8a88-c00024f90a6d" x1="25.15" y1="158.76" x2="324.85" y2="158.76"/><line class="e5fee3c4-836f-4b65-8a88-c00024f90a6d" x1="25.15" y1="168.93" x2="324.85" y2="168.93"/><line class="e5fee3c4-836f-4b65-8a88-c00024f90a6d" x1="25.15" y1="179.09" x2="324.85" y2="179.09"/><line class="e5fee3c4-836f-4b65-8a88-c00024f90a6d" x1="25.15" y1="189.26" x2="324.85" y2="189.26"/><line class="e5fee3c4-836f-4b65-8a88-c00024f90a6d" x1="25.15" y1="199.42" x2="324.85" y2="199.42"/><line class="e5fee3c4-836f-4b65-8a88-c00024f90a6d" x1="25.15" y1="209.58" x2="324.85" y2="209.58"/><line class="e5fee3c4-836f-4b65-8a88-c00024f90a6d" x1="25.15" y1="219.75" x2="324.85" y2="219.75"/><line class="e5fee3c4-836f-4b65-8a88-c00024f90a6d" x1="25.15" y1="229.91" x2="324.85" y2="229.91"/><line class="e5fee3c4-836f-4b65-8a88-c00024f90a6d" x1="25.15" y1="240.08" x2="324.85" y2="240.08"/><line class="e5fee3c4-836f-4b65-8a88-c00024f90a6d" x1="25.15" y1="250.24" x2="324.85" y2="250.24"/><line class="e5fee3c4-836f-4b65-8a88-c00024f90a6d" x1="25.15" y1="260.41" x2="324.85" y2="260.41"/><line class="e5fee3c4-836f-4b65-8a88-c00024f90a6d" x1="25.15" y1="270.57" x2="324.85" y2="270.57"/><line class="e5fee3c4-836f-4b65-8a88-c00024f90a6d" x1="25.15" y1="280.74" x2="324.85" y2="280.74"/><line class="e5fee3c4-836f-4b65-8a88-c00024f90a6d" x1="25.15" y1="290.9" x2="324.85" y2="290.9"/><line class="e5fee3c4-836f-4b65-8a88-c00024f90a6d" x1="25.15" y1="301.06" x2="324.85" y2="301.06"/><line class="e5fee3c4-836f-4b65-8a88-c00024f90a6d" x1="25.15" y1="311.23" x2="324.85" y2="311.23"/><ellipse class="afc081a7-e3f3-4adb-85ed-7a768c5de228" cx="175" cy="194.34" rx="124.88" ry="123.33"/><ellipse class="afc081a7-e3f3-4adb-85ed-7a768c5de228" cx="175" cy="194.34" rx="99.9" ry="98.26"/><path class="ff0eb2e7-e843-4b19-8362-285ecf2990fe" d="M175,81.34c-63.45,0-114.89,50.59-114.89,113s51.44,113,114.89,113,114.89-50.59,114.89-113S238.45,81.34,175,81.34Zm0,216.17c-57.93,0-104.9-46.19-104.9-103.17S117.07,91.17,175,91.17s104.9,46.19,104.9,103.17S232.93,297.51,175,297.51Z"/><path class="f71ed493-2d20-4ed4-8a3c-7a0e454ffd2d" d="M263.2,200c-6.62,8.44-22.5,11-31.6,5.08-5.95-3.86-7.49-12.23-10.34-28.81-6.12-35.71-9.11-53.6-5.74-55.37,7.29-3.82,24.51,15.8,27,18.64C255,153.79,275,184.93,263.2,200Z"/><path class="f71ed493-2d20-4ed4-8a3c-7a0e454ffd2d" d="M85.53,186.78c3.2-37.27,37.23-70.42,50.71-65.85,11.11,3.77,9.86,33.7,9.77,35.59-1.27,25.63-14.7,32.68-18.54,54-6.46,35.88,23.18,62.93,19.11,65.79C141.25,280.05,81,240.05,85.53,186.78Z"/><line class="e5fee3c4-836f-4b65-8a88-c00024f90a6d" x1="27.69" y1="322.4" x2="318.87" y2="322.92"/><line class="e5fee3c4-836f-4b65-8a88-c00024f90a6d" x1="35.59" y1="332.57" x2="312.41" y2="332.77"/></svg>