<svg id="a89a273d-9c7f-4eab-bcb4-0ffe7ece8e4c" data-name="Calque 1" xmlns="http://www.w3.org/2000/svg" viewBox="0 0 500 500"><defs><style>.aa95ec89-c95e-4d27-be8d-331135deef56,.ae686606-d184-42f6-bfa7-59b3ffd1f648{fill:#c481ad;}.bb058a84-6da2-44cf-a516-ce04a6b58d54{fill:none;stroke:#9b618d;}.aa95ec89-c95e-4d27-be8d-331135deef56,.bb058a84-6da2-44cf-a516-ce04a6b58d54{stroke-miterlimit:10;stroke-width:5px;}.aa95ec89-c95e-4d27-be8d-331135deef56{stroke:#935d85;}.e32579ad-0ccc-4778-a549-95326aa15090{fill:#fff;opacity:0.3;}.aae3c2b3-9a91-4a36-9ad3-b64eadf55c93{fill:#a36998;}</style></defs><path class="ae686606-d184-42f6-bfa7-59b3ffd1f648" d="M9.72,404.49a3,3,0,0,0,2.12,1.3,2.22,2.22,0,0,0,2-1.44l3.89-10.22,4.57,9.93a2.27,2.27,0,0,0,4.16-.14l3.89-10.21L35,403.64a2.27,2.27,0,0,0,4.16-.14L43,393.28l4.57,9.93a2.27,2.27,0,0,0,4.16-.14l3.89-10.21,4.57,9.93a2.27,2.27,0,0,0,4.16-.14l3.89-10.22,4.57,9.93a2.27,2.27,0,0,0,4.16-.14L80.86,392l4.57,9.93a2.27,2.27,0,0,0,4.16-.14l3.89-10.22,4.57,9.93a2.26,2.26,0,0,0,4.15-.14l3.9-10.22,4.57,9.94a2.26,2.26,0,0,0,4.15-.14l3.9-10.22,4.57,9.93a2.26,2.26,0,0,0,4.15-.14l3.89-10.22,4.58,9.93a2.26,2.26,0,0,0,4.15-.14L144,389.88l4.58,9.93a2.26,2.26,0,0,0,4.15-.14l3.89-10.22,4.57,9.93a2.27,2.27,0,0,0,4.16-.14L169.19,389l4.57,9.93a2.27,2.27,0,0,0,4.16-.14l3.89-10.22,4.57,9.93a2.27,2.27,0,0,0,4.16-.14l3.89-10.21,4.57,9.93a2.27,2.27,0,0,0,4.16-.14l3.89-10.22,4.57,9.93a2.27,2.27,0,0,0,4.16-.14l3.89-10.21,4.57,9.93a2.27,2.27,0,0,0,4.16-.14l3.89-10.22,4.57,9.93a2.26,2.26,0,0,0,4.15-.14l3.9-10.22,4.57,9.94a2.26,2.26,0,0,0,4.15-.14l3.9-10.22L262.1,396a2.26,2.26,0,0,0,4.15-.14l3.89-10.22,4.58,9.93a2.26,2.26,0,0,0,4.15-.14l3.89-10.21,4.57,9.93a2.27,2.27,0,0,0,4.16-.14l3.89-10.22L300,394.7a2.27,2.27,0,0,0,4.16-.14L308,384.35l4.57,9.93a2.27,2.27,0,0,0,4.16-.14l3.89-10.22,4.57,9.93a2.27,2.27,0,0,0,4.16-.14l3.89-10.21,4.57,9.93a2.27,2.27,0,0,0,4.16-.14l7.75-20.35a2.15,2.15,0,0,0,.13-.64h0l-.55-19.72c-186.84,6.63-255.23,13.34-270.59,19.24a196.41,196.41,0,0,1-24.6,7.39c-9,2.1-14,2.62-27.48,5.15-9.93,1.85-17.92,3.56-23,4.68C3.86,389.7,7.59,402,9.72,404.49Z"/><path class="ae686606-d184-42f6-bfa7-59b3ffd1f648" d="M349.79,22.29h0a2.07,2.07,0,0,0-.15-.63L341.18,1.58a2.27,2.27,0,0,0-4.16,0l-4.24,10.08L328.55,1.58a2.27,2.27,0,0,0-4.16,0l-4.23,10.08L315.92,1.58a2.26,2.26,0,0,0-4.15,0l-4.24,10.08L303.3,1.58a2.27,2.27,0,0,0-4.16,0l-4.23,10.08L290.67,1.58a2.27,2.27,0,0,0-4.16,0l-4.23,10.08L278,1.58a2.26,2.26,0,0,0-4.15,0l-4.24,10.08L265.42,1.58a2.27,2.27,0,0,0-4.16,0L257,11.66,252.79,1.58a2.27,2.27,0,0,0-4.16,0L244.4,11.66,240.17,1.58a2.27,2.27,0,0,0-4.16,0l-4.24,10.08L227.54,1.58a2.27,2.27,0,0,0-4.16,0l-4.23,10.08L214.91,1.58a2.26,2.26,0,0,0-4.15,0l-4.24,10.08L202.29,1.58a2.27,2.27,0,0,0-4.16,0L193.9,11.66,189.66,1.58a2.27,2.27,0,0,0-4.16,0l-4.23,10.08L177,1.58a2.27,2.27,0,0,0-4.16,0l-4.24,10.08L164.41,1.58a2.27,2.27,0,0,0-4.16,0L156,11.66,151.78,1.58a2.27,2.27,0,0,0-4.16,0l-4.23,10.08L139.16,1.58a2.27,2.27,0,0,0-4.16,0l-4.24,10.08L126.53,1.58a2.27,2.27,0,0,0-4.16,0l-4.23,10.08L113.9,1.58a2.26,2.26,0,0,0-4.15,0l-4.24,10.08L101.28,1.58a2.27,2.27,0,0,0-4.16,0L92.89,11.66,88.65,1.58a2.27,2.27,0,0,0-4.16,0L80.26,11.66,76,1.58a2.27,2.27,0,0,0-4.16,0L67.63,11.66,63.4,1.58a2.27,2.27,0,0,0-4.16,0L55,11.66,50.77,1.58a2.27,2.27,0,0,0-4.16,0L42.38,11.66,38.15,1.58a2.27,2.27,0,0,0-4.16,0L29.75,11.66,25.52,1.58a2.27,2.27,0,0,0-4.16,0L17.13,11.66,12.89,1.58a2.26,2.26,0,0,0-4.15,0L.3,21.66a2.07,2.07,0,0,0-.15.63h0Q.22,192.38.32,362.46A99.75,99.75,0,0,0,20,365.71c10.87.68,16.46-.78,25.3-.94a93.41,93.41,0,0,1,30.45,4.69q34.35-.46,68.69-.86,102.59-1.19,205.17-1.78a2,2,0,0,0,.1-.32,1.67,1.67,0,0,0,.05-.31h0Z"/><rect class="bb058a84-6da2-44cf-a516-ce04a6b58d54" x="25.1" y="46.86" width="299.71" height="294.77" rx="35.26"/><line class="bb058a84-6da2-44cf-a516-ce04a6b58d54" x1="36.12" y1="57.02" x2="313.93" y2="57.02"/><line class="bb058a84-6da2-44cf-a516-ce04a6b58d54" x1="29.28" y1="67.19" x2="320.1" y2="67.19"/><line class="bb058a84-6da2-44cf-a516-ce04a6b58d54" x1="25.1" y1="77.35" x2="324.81" y2="77.35"/><line class="bb058a84-6da2-44cf-a516-ce04a6b58d54" x1="25.1" y1="87.51" x2="324.81" y2="87.51"/><line class="bb058a84-6da2-44cf-a516-ce04a6b58d54" x1="25.1" y1="97.68" x2="324.81" y2="97.68"/><line class="bb058a84-6da2-44cf-a516-ce04a6b58d54" x1="25.1" y1="107.84" x2="324.81" y2="107.84"/><line class="bb058a84-6da2-44cf-a516-ce04a6b58d54" x1="25.1" y1="118.01" x2="324.81" y2="118.01"/><line class="bb058a84-6da2-44cf-a516-ce04a6b58d54" x1="25.1" y1="128.17" x2="324.81" y2="128.17"/><line class="bb058a84-6da2-44cf-a516-ce04a6b58d54" x1="25.1" y1="138.34" x2="324.81" y2="138.34"/><line class="bb058a84-6da2-44cf-a516-ce04a6b58d54" x1="25.1" y1="148.5" x2="324.81" y2="148.5"/><line class="bb058a84-6da2-44cf-a516-ce04a6b58d54" x1="25.1" y1="158.66" x2="324.81" y2="158.66"/><line class="bb058a84-6da2-44cf-a516-ce04a6b58d54" x1="25.1" y1="168.83" x2="324.81" y2="168.83"/><line class="bb058a84-6da2-44cf-a516-ce04a6b58d54" x1="25.1" y1="178.99" x2="324.81" y2="178.99"/><line class="bb058a84-6da2-44cf-a516-ce04a6b58d54" x1="25.1" y1="189.16" x2="324.81" y2="189.16"/><line class="bb058a84-6da2-44cf-a516-ce04a6b58d54" x1="25.1" y1="199.32" x2="324.81" y2="199.32"/><line class="bb058a84-6da2-44cf-a516-ce04a6b58d54" x1="25.1" y1="209.49" x2="324.81" y2="209.49"/><line class="bb058a84-6da2-44cf-a516-ce04a6b58d54" x1="25.1" y1="219.65" x2="324.81" y2="219.65"/><line class="bb058a84-6da2-44cf-a516-ce04a6b58d54" x1="25.1" y1="229.82" x2="324.81" y2="229.82"/><line class="bb058a84-6da2-44cf-a516-ce04a6b58d54" x1="25.1" y1="239.98" x2="324.81" y2="239.98"/><line class="bb058a84-6da2-44cf-a516-ce04a6b58d54" x1="25.1" y1="250.14" x2="324.81" y2="250.14"/><line class="bb058a84-6da2-44cf-a516-ce04a6b58d54" x1="25.1" y1="260.31" x2="324.81" y2="260.31"/><line class="bb058a84-6da2-44cf-a516-ce04a6b58d54" x1="25.1" y1="270.47" x2="324.81" y2="270.47"/><line class="bb058a84-6da2-44cf-a516-ce04a6b58d54" x1="25.1" y1="280.64" x2="324.81" y2="280.64"/><line class="bb058a84-6da2-44cf-a516-ce04a6b58d54" x1="25.1" y1="290.8" x2="324.81" y2="290.8"/><line class="bb058a84-6da2-44cf-a516-ce04a6b58d54" x1="25.1" y1="300.97" x2="324.81" y2="300.97"/><line class="bb058a84-6da2-44cf-a516-ce04a6b58d54" x1="25.1" y1="311.13" x2="324.81" y2="311.13"/><ellipse class="aa95ec89-c95e-4d27-be8d-331135deef56" cx="174.96" cy="194.24" rx="124.88" ry="123.33"/><ellipse class="aa95ec89-c95e-4d27-be8d-331135deef56" cx="174.96" cy="194.24" rx="99.9" ry="98.26"/><path class="e32579ad-0ccc-4778-a549-95326aa15090" d="M175,81.25c-63.45,0-114.89,50.58-114.89,113s51.44,113,114.89,113,114.88-50.59,114.88-113S238.41,81.25,175,81.25Zm0,216.16c-57.94,0-104.9-46.19-104.9-103.17S117,91.07,175,91.07s104.89,46.19,104.89,103.17S232.89,297.41,175,297.41Z"/><path class="aae3c2b3-9a91-4a36-9ad3-b64eadf55c93" d="M263.16,199.93c-6.62,8.44-22.5,11-31.6,5.09-5.95-3.87-7.5-12.24-10.34-28.82-6.12-35.71-9.12-53.6-5.74-55.37,7.29-3.82,24.5,15.81,27,18.65C254.94,153.69,275,184.83,263.16,199.93Z"/><path class="aae3c2b3-9a91-4a36-9ad3-b64eadf55c93" d="M85.49,186.68c3.2-37.26,37.23-70.42,50.71-65.85,11.11,3.77,9.86,33.7,9.76,35.6-1.26,25.62-14.7,32.67-18.53,54-6.47,35.88,23.18,62.94,19.11,65.8C141.2,280,80.92,240,85.49,186.68Z"/><line class="bb058a84-6da2-44cf-a516-ce04a6b58d54" x1="27.64" y1="322.31" x2="318.82" y2="322.82"/><line class="bb058a84-6da2-44cf-a516-ce04a6b58d54" x1="35.55" y1="332.47" x2="312.37" y2="332.67"/></svg>