<svg id="a50cc95c-d4fb-4c79-8754-671c43c5d39f" data-name="Calque 1" xmlns="http://www.w3.org/2000/svg" viewBox="0 0 601.48 175"><defs><style>.a3f59ed8-637d-457c-86a4-4926a86f59d0,.e140e318-8bd1-463b-93be-bb5020d32ad6{fill:none;}.acdefe46-43b8-4a79-b032-4f32d350261e,.afdb53da-2177-426d-b65f-05eeaeca1f24{fill:#fff;}.acdefe46-43b8-4a79-b032-4f32d350261e{stroke:#66b4e5;}.acdefe46-43b8-4a79-b032-4f32d350261e,.afdb53da-2177-426d-b65f-05eeaeca1f24,.e140e318-8bd1-463b-93be-bb5020d32ad6{stroke-miterlimit:10;stroke-width:3px;}.afdb53da-2177-426d-b65f-05eeaeca1f24,.e140e318-8bd1-463b-93be-bb5020d32ad6{stroke:#e06ca6;}</style></defs><rect class="a3f59ed8-637d-457c-86a4-4926a86f59d0" x="1.48" width="600" height="175"/><path class="acdefe46-43b8-4a79-b032-4f32d350261e" d="M69.26,257.89c0-15.58-11.25-28.21-25.13-28.21S19,242.31,19,257.89c0,13.64,8.64,25,20.11,27.64,3,7.6,4,13.88,1.1,16.66-5.74,5.4-23.26-5.7-27.07-.74s12.49,16.86,9.72,32.71c-.67,3.81-3,7.73-8,15.29C5.83,363-.45,368.14.24,369.09c1,1.42,16-5.56,25.17-19.29,3.34-5,9-13.48,7.47-23.43-1-6.39-4.3-9.66-2.53-12.09,3-4.16,14.6,3.13,20.82-.55,4.13-2.44,6.46-10,2.46-29.72C62.8,279.8,69.26,269.69,69.26,257.89Z" transform="translate(1.31 -212.17)"/><line class="e140e318-8bd1-463b-93be-bb5020d32ad6" x1="20.86" y1="42.3" x2="28.56" y2="41.51"/><line class="e140e318-8bd1-463b-93be-bb5020d32ad6" x1="69.86" y1="43.49" x2="62.57" y2="41.31"/><path class="e140e318-8bd1-463b-93be-bb5020d32ad6" d="M41.15,253.29a3.42,3.42,0,0,1,3.24-1.81A3.23,3.23,0,0,1,47.31,253" transform="translate(1.31 -212.17)"/><ellipse class="afdb53da-2177-426d-b65f-05eeaeca1f24" cx="35.51" cy="41.99" rx="7.1" ry="8.41"/><ellipse class="afdb53da-2177-426d-b65f-05eeaeca1f24" cx="55.47" cy="41.52" rx="7.1" ry="8.41"/></svg>